<mxfile host="app.diagrams.net" modified="2023-04-23T19:16:57.386Z" agent="Mozilla/5.0 (Windows NT 10.0; Win64; x64) AppleWebKit/537.36 (KHTML, like Gecko) Chrome/111.0.0.0 Safari/537.36" version="21.2.1" etag="FcxIRms4tkZCg42o6aJq" type="github">
  <diagram name="Страница 1" id="Of5ykvFxHPqqBb_n9JY1">
    <mxGraphModel>
      <root>
        <mxCell id="0" />
        <mxCell id="1" parent="0" />
      </root>
    </mxGraphModel>
  </diagram>
</mxfile>
